<svg xmlns="http://www.w3.org/2000/svg" width="2000" height="580" viewBox="0 0 2000 580">
  <defs>
    <linearGradient id="sea" x1="0" y1="0" x2="0" y2="1">
      <stop offset="0" stop-color="#5fe3d4"/><stop offset="0.55" stop-color="#1aa7c9"/><stop offset="1" stop-color="#0a5f8a"/>
    </linearGradient>
    <clipPath id="disc"><circle cx="330" cy="290" r="202.1"/></clipPath>
  </defs>
  <circle cx="330" cy="303.2" r="244.4" fill="#0b2545" opacity="0.35"/>
  <circle cx="330" cy="290" r="244.4" fill="#0b2545"/>
  <circle cx="330" cy="290" r="235.0" fill="#fff3d9"/>
  <line x1="330.0" y1="82.0" x2="330.0" y2="60.9" stroke="#0b2545" stroke-width="8.5" stroke-linecap="round"/><line x1="371.7" y1="80.3" x2="373.8" y2="69.9" stroke="#0b2545" stroke-width="4.7" stroke-linecap="round"/><line x1="411.8" y1="92.4" x2="415.9" y2="82.7" stroke="#0b2545" stroke-width="4.7" stroke-linecap="round"/><line x1="448.8" y1="112.2" x2="454.7" y2="103.4" stroke="#0b2545" stroke-width="4.7" stroke-linecap="round"/><line x1="481.2" y1="138.8" x2="488.7" y2="131.3" stroke="#0b2545" stroke-width="4.7" stroke-linecap="round"/><line x1="507.8" y1="171.2" x2="516.6" y2="165.3" stroke="#0b2545" stroke-width="4.7" stroke-linecap="round"/><line x1="527.6" y1="208.2" x2="537.3" y2="204.1" stroke="#0b2545" stroke-width="4.7" stroke-linecap="round"/><line x1="539.7" y1="248.3" x2="550.1" y2="246.2" stroke="#0b2545" stroke-width="4.7" stroke-linecap="round"/><line x1="538.0" y1="290.0" x2="559.1" y2="290.0" stroke="#0b2545" stroke-width="8.5" stroke-linecap="round"/><line x1="539.7" y1="331.7" x2="550.1" y2="333.8" stroke="#0b2545" stroke-width="4.7" stroke-linecap="round"/><line x1="527.6" y1="371.8" x2="537.3" y2="375.9" stroke="#0b2545" stroke-width="4.7" stroke-linecap="round"/><line x1="507.8" y1="408.8" x2="516.6" y2="414.7" stroke="#0b2545" stroke-width="4.7" stroke-linecap="round"/><line x1="481.2" y1="441.2" x2="488.7" y2="448.7" stroke="#0b2545" stroke-width="4.7" stroke-linecap="round"/><line x1="448.8" y1="467.8" x2="454.7" y2="476.6" stroke="#0b2545" stroke-width="4.7" stroke-linecap="round"/><line x1="411.8" y1="487.6" x2="415.9" y2="497.3" stroke="#0b2545" stroke-width="4.7" stroke-linecap="round"/><line x1="371.7" y1="499.7" x2="373.8" y2="510.1" stroke="#0b2545" stroke-width="4.7" stroke-linecap="round"/><line x1="330.0" y1="498.0" x2="330.0" y2="519.1" stroke="#0b2545" stroke-width="8.5" stroke-linecap="round"/><line x1="288.3" y1="499.7" x2="286.2" y2="510.1" stroke="#0b2545" stroke-width="4.7" stroke-linecap="round"/><line x1="248.2" y1="487.6" x2="244.1" y2="497.3" stroke="#0b2545" stroke-width="4.7" stroke-linecap="round"/><line x1="211.2" y1="467.8" x2="205.3" y2="476.6" stroke="#0b2545" stroke-width="4.7" stroke-linecap="round"/><line x1="178.8" y1="441.2" x2="171.3" y2="448.7" stroke="#0b2545" stroke-width="4.7" stroke-linecap="round"/><line x1="152.2" y1="408.8" x2="143.4" y2="414.7" stroke="#0b2545" stroke-width="4.7" stroke-linecap="round"/><line x1="132.4" y1="371.8" x2="122.7" y2="375.9" stroke="#0b2545" stroke-width="4.7" stroke-linecap="round"/><line x1="120.3" y1="331.7" x2="109.9" y2="333.8" stroke="#0b2545" stroke-width="4.7" stroke-linecap="round"/><line x1="122.0" y1="290.0" x2="100.9" y2="290.0" stroke="#0b2545" stroke-width="8.5" stroke-linecap="round"/><line x1="120.3" y1="248.3" x2="109.9" y2="246.2" stroke="#0b2545" stroke-width="4.7" stroke-linecap="round"/><line x1="132.4" y1="208.2" x2="122.7" y2="204.1" stroke="#0b2545" stroke-width="4.7" stroke-linecap="round"/><line x1="152.2" y1="171.2" x2="143.4" y2="165.3" stroke="#0b2545" stroke-width="4.7" stroke-linecap="round"/><line x1="178.8" y1="138.8" x2="171.3" y2="131.3" stroke="#0b2545" stroke-width="4.7" stroke-linecap="round"/><line x1="211.2" y1="112.2" x2="205.3" y2="103.4" stroke="#0b2545" stroke-width="4.7" stroke-linecap="round"/><line x1="248.2" y1="92.4" x2="244.1" y2="82.7" stroke="#0b2545" stroke-width="4.7" stroke-linecap="round"/><line x1="288.3" y1="80.3" x2="286.2" y2="69.9" stroke="#0b2545" stroke-width="4.7" stroke-linecap="round"/>
  <circle cx="330" cy="290" r="209.6" fill="#0b2545"/>
  <g clip-path="url(#disc)">
    <circle cx="330" cy="290" r="202.1" fill="url(#sea)"/>
    <circle cx="224.2" cy="184.2" r="117.5" fill="#ffffff" opacity="0.12"/>
    <path d="M 95.0 388.7 q 25.9 -11.8 51.7 0 q 25.9 -11.8 51.7 0 q 25.9 -11.8 51.7 0 q 25.9 -11.8 51.7 0 q 25.9 -11.8 51.7 0 q 25.9 -11.8 51.7 0 q 25.9 -11.8 51.7 0 q 25.9 -11.8 51.7 0 q 25.9 -11.8 51.7 0 q 25.9 -11.8 51.7 0 V 525.0 H 95.0 Z" fill="#0b2545" opacity="0.28"/><path d="M 95.0 435.7 q 25.9 -11.8 51.7 0 q 25.9 -11.8 51.7 0 q 25.9 -11.8 51.7 0 q 25.9 -11.8 51.7 0 q 25.9 -11.8 51.7 0 q 25.9 -11.8 51.7 0 q 25.9 -11.8 51.7 0 q 25.9 -11.8 51.7 0 q 25.9 -11.8 51.7 0 q 25.9 -11.8 51.7 0 V 525.0 H 95.0 Z" fill="#0b2545" opacity="0.3"/>
    <path d="M 344.1 261.8 Q 386.4 134.9 435.8 205.4" fill="none" stroke="#ffffff" stroke-width="13.2" stroke-linecap="round" stroke-dasharray="0.9 28.2"/><path d="M 415.8 198.7 L 460.9 225.0 L 415.8 251.4 Z" fill="#ff7a59" stroke="#ffffff" stroke-width="7.5" stroke-linejoin="round" transform="rotate(82.5 438.3 225.0)"/>
    <circle cx="447.5" cy="294.7" r="63.5" fill="#ffd23f" opacity="0.35"/>
    <circle cx="447.5" cy="294.7" r="47.0" fill="#ffd23f" stroke="#0b2545" stroke-width="7.5"/>
    <g fill="none" stroke="#0b2545" stroke-width="6.6" stroke-linecap="round">
      <circle cx="447.5" cy="271.2" r="7.5"/>
      <path d="M 447.5 278.7 V 323.8 M 431.5 289.1 H 463.5 M 421.2 304.1 Q 447.5 339.3 473.8 304.1"/>
    </g>
    <g stroke="#0b2545" stroke-width="8.5" stroke-linejoin="round" stroke-linecap="round">
      <path d="M 134.5 337.0 L 356.3 337.0 L 331.9 391.5 L 158.9 391.5 Z" fill="#ff7a59"/>
      <path d="M 142.0 357.7 L 350.7 357.7" stroke="#d9563a" stroke-width="6.6"/>
      <rect x="155.2" y="295.6" width="48.9" height="41.4" rx="4.7" fill="#2ec4b6"/>
      <rect x="204.0" y="295.6" width="48.9" height="41.4" rx="4.7" fill="#ffd23f"/>
      <rect x="179.6" y="256.2" width="48.9" height="39.5" rx="4.7" fill="#ff7a59"/>
      <rect x="266.1" y="250.5" width="67.7" height="86.5" rx="7.5" fill="#fff3d9"/>
      <rect x="279.2" y="205.4" width="24.4" height="45.1" rx="4.7" fill="#ffd23f"/>
      <path d="M 277.4 273.1 L 322.5 273.1" stroke="#0b2545" stroke-width="10.3"/>
    </g>
  </g><g fill="#0b2545" stroke="#0b2545" stroke-width="136.8" stroke-linejoin="round"><path transform="translate(735.46 244.00) scale(0.19000 -0.19000)" d="M76 244Q95 229 141.5 203.0Q188 177 230.5 177.0Q273 177 273 210Q273 225 261.0 236.5Q249 248 217.0 263.0Q185 278 169.0 286.5Q153 295 126.5 314.5Q100 334 86 355Q46 412 46.0 500.0Q46 588 111.5 648.5Q177 709 283 709Q355 709 416.0 693.5Q477 678 479 653Q479 650 479 647Q479 612 457.0 558.5Q435 505 426 499Q362 532 311.5 532.0Q261 532 261 496Q261 474 298 457Q306 453 321.0 446.0Q336 439 355.5 429.5Q375 420 397.5 405.5Q420 391 446 367Q499 317 499 235Q499 128 440.0 60.0Q381 -8 258 -10Q198 -10 149.5 0.0Q101 10 65.0 39.0Q29 68 29.0 109.0Q29 150 44.0 190.5Q59 231 76 244Z"/><path transform="translate(838.25 244.00) scale(0.19000 -0.19000)" d="M594 17Q594 0 493.0 0.0Q392 0 392 17V247H252V17Q252 0 151.0 0.0Q50 0 50 17V680Q50 701 151.0 701.0Q252 701 252 680V445H392V678Q392 692 442 698Q468 700 493 700L544 698Q594 692 594 678Z"/><path transform="translate(962.51 244.00) scale(0.19000 -0.19000)" d="M116 172V528H45Q28 528 21 571Q18 592 18.0 614.0Q18 636 21 657Q28 700 45 700H381Q398 700 404 657Q408 636 408.0 614.0Q408 592 404 571Q398 528 381 528H314V172H384Q401 172 408 129Q412 108 412.0 86.0Q412 64 408 43Q401 0 384 0H47Q30 0 24 43Q20 64 20.0 86.0Q20 108 24 129Q30 172 47 172Z"/><path transform="translate(1045.92 244.00) scale(0.19000 -0.19000)" d="M137 -2Q46 -2 46 18V666Q46 700 77 700H253Q401 700 466.5 639.0Q532 578 532 462Q532 366 470 286Q439 246 379.0 222.0Q319 198 239 198V19Q239 7 201.5 2.5Q164 -2 137 -2ZM239 526V368H252Q287 368 311.0 390.0Q335 412 335.0 452.0Q335 492 318.5 509.0Q302 526 260 526Z"/><path transform="translate(1193.74 244.00) scale(0.19000 -0.19000)" d="M351 16Q351 -4 252.0 -4.0Q153 -4 153 16V518H33Q16 518 9 564Q6 586 6.0 609.0Q6 632 9 654Q16 700 33 700H468Q485 700 492 654Q495 632 495.0 609.0Q495 586 492 564Q485 518 468 518H351Z"/><path transform="translate(1291.03 244.00) scale(0.19000 -0.19000)" d="M241 14Q241 -2 146 -2Q50 -2 50 13V665Q50 700 87 700H278Q541 700 541 495Q541 433 517.0 382.5Q493 332 449 302L575 92Q567 68 523 37Q463 -6 424.0 -6.0Q385 -6 366 22L272 241H241ZM241 523V373H246Q341 373 341 452Q341 488 322.5 505.5Q304 523 262 523Z"/><path transform="translate(1405.03 244.00) scale(0.19000 -0.19000)" d="M520 -2Q433 -2 426 26L393 155H234L205 31Q199 0 109 0Q61 0 38.0 5.5Q15 11 15 14L192 691Q192 699 329.0 699.0Q466 699 466 691L639 13Q639 6 593.0 2.0Q547 -2 520 -2ZM259 282H364L319 489H313Z"/><path transform="translate(1531.38 244.00) scale(0.19000 -0.19000)" d="M424 700Q441 700 441.0 611.5Q441 523 424 523H241V409H363Q380 409 380.0 331.5Q380 254 364 254H241V13Q241 -1 203.5 -5.5Q166 -10 141 -10L94 -8Q45 -2 45 12V674Q45 690 51.5 695.0Q58 700 71 700Z"/><path transform="translate(1622.95 244.00) scale(0.19000 -0.19000)" d="M424 700Q441 700 441.0 611.5Q441 523 424 523H241V409H363Q380 409 380.0 331.5Q380 254 364 254H241V13Q241 -1 203.5 -5.5Q166 -10 141 -10L94 -8Q45 -2 45 12V674Q45 690 51.5 695.0Q58 700 71 700Z"/><path transform="translate(1714.54 244.00) scale(0.19000 -0.19000)" d="M116 172V528H45Q28 528 21 571Q18 592 18.0 614.0Q18 636 21 657Q28 700 45 700H381Q398 700 404 657Q408 636 408.0 614.0Q408 592 404 571Q398 528 381 528H314V172H384Q401 172 408 129Q412 108 412.0 86.0Q412 64 408 43Q401 0 384 0H47Q30 0 24 43Q20 64 20.0 86.0Q20 108 24 129Q30 172 47 172Z"/><path transform="translate(1797.95 244.00) scale(0.19000 -0.19000)" d="M449 495Q444 495 437.5 500.5Q431 506 407.5 512.5Q384 519 367 519Q309 519 273.5 478.0Q238 437 238.0 352.5Q238 268 274.5 227.0Q311 186 367 186Q390 186 418.5 192.5Q447 199 459 211Q461 213 467.0 213.0Q473 213 489.5 190.5Q506 168 520.0 131.5Q534 95 534 75Q534 36 474.0 13.0Q414 -10 332 -10Q200 -10 115.0 83.0Q30 176 30.0 345.5Q30 515 117.5 612.0Q205 709 336 709Q409 709 464.5 688.5Q520 668 520.0 633.0Q520 598 493.5 546.5Q467 495 449 495Z"/></g>
<g fill="#0b2545" stroke="#0b2545" stroke-width="136.8" stroke-linejoin="round"><path transform="translate(735.46 230.00) scale(0.19000 -0.19000)" d="M76 244Q95 229 141.5 203.0Q188 177 230.5 177.0Q273 177 273 210Q273 225 261.0 236.5Q249 248 217.0 263.0Q185 278 169.0 286.5Q153 295 126.5 314.5Q100 334 86 355Q46 412 46.0 500.0Q46 588 111.5 648.5Q177 709 283 709Q355 709 416.0 693.5Q477 678 479 653Q479 650 479 647Q479 612 457.0 558.5Q435 505 426 499Q362 532 311.5 532.0Q261 532 261 496Q261 474 298 457Q306 453 321.0 446.0Q336 439 355.5 429.5Q375 420 397.5 405.5Q420 391 446 367Q499 317 499 235Q499 128 440.0 60.0Q381 -8 258 -10Q198 -10 149.5 0.0Q101 10 65.0 39.0Q29 68 29.0 109.0Q29 150 44.0 190.5Q59 231 76 244Z"/><path transform="translate(838.25 230.00) scale(0.19000 -0.19000)" d="M594 17Q594 0 493.0 0.0Q392 0 392 17V247H252V17Q252 0 151.0 0.0Q50 0 50 17V680Q50 701 151.0 701.0Q252 701 252 680V445H392V678Q392 692 442 698Q468 700 493 700L544 698Q594 692 594 678Z"/><path transform="translate(962.51 230.00) scale(0.19000 -0.19000)" d="M116 172V528H45Q28 528 21 571Q18 592 18.0 614.0Q18 636 21 657Q28 700 45 700H381Q398 700 404 657Q408 636 408.0 614.0Q408 592 404 571Q398 528 381 528H314V172H384Q401 172 408 129Q412 108 412.0 86.0Q412 64 408 43Q401 0 384 0H47Q30 0 24 43Q20 64 20.0 86.0Q20 108 24 129Q30 172 47 172Z"/><path transform="translate(1045.92 230.00) scale(0.19000 -0.19000)" d="M137 -2Q46 -2 46 18V666Q46 700 77 700H253Q401 700 466.5 639.0Q532 578 532 462Q532 366 470 286Q439 246 379.0 222.0Q319 198 239 198V19Q239 7 201.5 2.5Q164 -2 137 -2ZM239 526V368H252Q287 368 311.0 390.0Q335 412 335.0 452.0Q335 492 318.5 509.0Q302 526 260 526Z"/><path transform="translate(1193.74 230.00) scale(0.19000 -0.19000)" d="M351 16Q351 -4 252.0 -4.0Q153 -4 153 16V518H33Q16 518 9 564Q6 586 6.0 609.0Q6 632 9 654Q16 700 33 700H468Q485 700 492 654Q495 632 495.0 609.0Q495 586 492 564Q485 518 468 518H351Z"/><path transform="translate(1291.03 230.00) scale(0.19000 -0.19000)" d="M241 14Q241 -2 146 -2Q50 -2 50 13V665Q50 700 87 700H278Q541 700 541 495Q541 433 517.0 382.5Q493 332 449 302L575 92Q567 68 523 37Q463 -6 424.0 -6.0Q385 -6 366 22L272 241H241ZM241 523V373H246Q341 373 341 452Q341 488 322.5 505.5Q304 523 262 523Z"/><path transform="translate(1405.03 230.00) scale(0.19000 -0.19000)" d="M520 -2Q433 -2 426 26L393 155H234L205 31Q199 0 109 0Q61 0 38.0 5.5Q15 11 15 14L192 691Q192 699 329.0 699.0Q466 699 466 691L639 13Q639 6 593.0 2.0Q547 -2 520 -2ZM259 282H364L319 489H313Z"/><path transform="translate(1531.38 230.00) scale(0.19000 -0.19000)" d="M424 700Q441 700 441.0 611.5Q441 523 424 523H241V409H363Q380 409 380.0 331.5Q380 254 364 254H241V13Q241 -1 203.5 -5.5Q166 -10 141 -10L94 -8Q45 -2 45 12V674Q45 690 51.5 695.0Q58 700 71 700Z"/><path transform="translate(1622.95 230.00) scale(0.19000 -0.19000)" d="M424 700Q441 700 441.0 611.5Q441 523 424 523H241V409H363Q380 409 380.0 331.5Q380 254 364 254H241V13Q241 -1 203.5 -5.5Q166 -10 141 -10L94 -8Q45 -2 45 12V674Q45 690 51.5 695.0Q58 700 71 700Z"/><path transform="translate(1714.54 230.00) scale(0.19000 -0.19000)" d="M116 172V528H45Q28 528 21 571Q18 592 18.0 614.0Q18 636 21 657Q28 700 45 700H381Q398 700 404 657Q408 636 408.0 614.0Q408 592 404 571Q398 528 381 528H314V172H384Q401 172 408 129Q412 108 412.0 86.0Q412 64 408 43Q401 0 384 0H47Q30 0 24 43Q20 64 20.0 86.0Q20 108 24 129Q30 172 47 172Z"/><path transform="translate(1797.95 230.00) scale(0.19000 -0.19000)" d="M449 495Q444 495 437.5 500.5Q431 506 407.5 512.5Q384 519 367 519Q309 519 273.5 478.0Q238 437 238.0 352.5Q238 268 274.5 227.0Q311 186 367 186Q390 186 418.5 192.5Q447 199 459 211Q461 213 467.0 213.0Q473 213 489.5 190.5Q506 168 520.0 131.5Q534 95 534 75Q534 36 474.0 13.0Q414 -10 332 -10Q200 -10 115.0 83.0Q30 176 30.0 345.5Q30 515 117.5 612.0Q205 709 336 709Q409 709 464.5 688.5Q520 668 520.0 633.0Q520 598 493.5 546.5Q467 495 449 495Z"/></g>
<g fill="#ffffff" ><path transform="translate(735.46 230.00) scale(0.19000 -0.19000)" d="M76 244Q95 229 141.5 203.0Q188 177 230.5 177.0Q273 177 273 210Q273 225 261.0 236.5Q249 248 217.0 263.0Q185 278 169.0 286.5Q153 295 126.5 314.5Q100 334 86 355Q46 412 46.0 500.0Q46 588 111.5 648.5Q177 709 283 709Q355 709 416.0 693.5Q477 678 479 653Q479 650 479 647Q479 612 457.0 558.5Q435 505 426 499Q362 532 311.5 532.0Q261 532 261 496Q261 474 298 457Q306 453 321.0 446.0Q336 439 355.5 429.5Q375 420 397.5 405.5Q420 391 446 367Q499 317 499 235Q499 128 440.0 60.0Q381 -8 258 -10Q198 -10 149.5 0.0Q101 10 65.0 39.0Q29 68 29.0 109.0Q29 150 44.0 190.5Q59 231 76 244Z"/><path transform="translate(838.25 230.00) scale(0.19000 -0.19000)" d="M594 17Q594 0 493.0 0.0Q392 0 392 17V247H252V17Q252 0 151.0 0.0Q50 0 50 17V680Q50 701 151.0 701.0Q252 701 252 680V445H392V678Q392 692 442 698Q468 700 493 700L544 698Q594 692 594 678Z"/><path transform="translate(962.51 230.00) scale(0.19000 -0.19000)" d="M116 172V528H45Q28 528 21 571Q18 592 18.0 614.0Q18 636 21 657Q28 700 45 700H381Q398 700 404 657Q408 636 408.0 614.0Q408 592 404 571Q398 528 381 528H314V172H384Q401 172 408 129Q412 108 412.0 86.0Q412 64 408 43Q401 0 384 0H47Q30 0 24 43Q20 64 20.0 86.0Q20 108 24 129Q30 172 47 172Z"/><path transform="translate(1045.92 230.00) scale(0.19000 -0.19000)" d="M137 -2Q46 -2 46 18V666Q46 700 77 700H253Q401 700 466.5 639.0Q532 578 532 462Q532 366 470 286Q439 246 379.0 222.0Q319 198 239 198V19Q239 7 201.5 2.5Q164 -2 137 -2ZM239 526V368H252Q287 368 311.0 390.0Q335 412 335.0 452.0Q335 492 318.5 509.0Q302 526 260 526Z"/><path transform="translate(1193.74 230.00) scale(0.19000 -0.19000)" d="M351 16Q351 -4 252.0 -4.0Q153 -4 153 16V518H33Q16 518 9 564Q6 586 6.0 609.0Q6 632 9 654Q16 700 33 700H468Q485 700 492 654Q495 632 495.0 609.0Q495 586 492 564Q485 518 468 518H351Z"/><path transform="translate(1291.03 230.00) scale(0.19000 -0.19000)" d="M241 14Q241 -2 146 -2Q50 -2 50 13V665Q50 700 87 700H278Q541 700 541 495Q541 433 517.0 382.5Q493 332 449 302L575 92Q567 68 523 37Q463 -6 424.0 -6.0Q385 -6 366 22L272 241H241ZM241 523V373H246Q341 373 341 452Q341 488 322.5 505.5Q304 523 262 523Z"/><path transform="translate(1405.03 230.00) scale(0.19000 -0.19000)" d="M520 -2Q433 -2 426 26L393 155H234L205 31Q199 0 109 0Q61 0 38.0 5.5Q15 11 15 14L192 691Q192 699 329.0 699.0Q466 699 466 691L639 13Q639 6 593.0 2.0Q547 -2 520 -2ZM259 282H364L319 489H313Z"/><path transform="translate(1531.38 230.00) scale(0.19000 -0.19000)" d="M424 700Q441 700 441.0 611.5Q441 523 424 523H241V409H363Q380 409 380.0 331.5Q380 254 364 254H241V13Q241 -1 203.5 -5.5Q166 -10 141 -10L94 -8Q45 -2 45 12V674Q45 690 51.5 695.0Q58 700 71 700Z"/><path transform="translate(1622.95 230.00) scale(0.19000 -0.19000)" d="M424 700Q441 700 441.0 611.5Q441 523 424 523H241V409H363Q380 409 380.0 331.5Q380 254 364 254H241V13Q241 -1 203.5 -5.5Q166 -10 141 -10L94 -8Q45 -2 45 12V674Q45 690 51.5 695.0Q58 700 71 700Z"/><path transform="translate(1714.54 230.00) scale(0.19000 -0.19000)" d="M116 172V528H45Q28 528 21 571Q18 592 18.0 614.0Q18 636 21 657Q28 700 45 700H381Q398 700 404 657Q408 636 408.0 614.0Q408 592 404 571Q398 528 381 528H314V172H384Q401 172 408 129Q412 108 412.0 86.0Q412 64 408 43Q401 0 384 0H47Q30 0 24 43Q20 64 20.0 86.0Q20 108 24 129Q30 172 47 172Z"/><path transform="translate(1797.95 230.00) scale(0.19000 -0.19000)" d="M449 495Q444 495 437.5 500.5Q431 506 407.5 512.5Q384 519 367 519Q309 519 273.5 478.0Q238 437 238.0 352.5Q238 268 274.5 227.0Q311 186 367 186Q390 186 418.5 192.5Q447 199 459 211Q461 213 467.0 213.0Q473 213 489.5 190.5Q506 168 520.0 131.5Q534 95 534 75Q534 36 474.0 13.0Q414 -10 332 -10Q200 -10 115.0 83.0Q30 176 30.0 345.5Q30 515 117.5 612.0Q205 709 336 709Q409 709 464.5 688.5Q520 668 520.0 633.0Q520 598 493.5 546.5Q467 495 449 495Z"/></g>
  <g stroke="#0b2545" stroke-width="10" stroke-linejoin="round">
    <path d="M 841.6 312.4 h 98.6 v 128.0 h -98.6 l 35.2 -64.0 Z" fill="#d9563a"/>
    <path d="M 1798.4 312.4 h -98.6 v 128.0 h 98.6 l -35.2 -64.0 Z" fill="#d9563a"/>
    <path d="M 912.0 274.0 Q 1320.0 252.0 1728.0 274.0 V 402.0 Q 1320.0 380.0 912.0 402.0 Z" fill="#ff7a59"/>
  </g><g fill="#0b2545" stroke="#0b2545" stroke-width="160.7" stroke-linejoin="round"><path transform="translate(956.95 378.00) scale(0.11200 -0.11200)" d="M449 495Q444 495 437.5 500.5Q431 506 407.5 512.5Q384 519 367 519Q309 519 273.5 478.0Q238 437 238.0 352.5Q238 268 274.5 227.0Q311 186 367 186Q390 186 418.5 192.5Q447 199 459 211Q461 213 467.0 213.0Q473 213 489.5 190.5Q506 168 520.0 131.5Q534 95 534 75Q534 36 474.0 13.0Q414 -10 332 -10Q200 -10 115.0 83.0Q30 176 30.0 345.5Q30 515 117.5 612.0Q205 709 336 709Q409 709 464.5 688.5Q520 668 520.0 633.0Q520 598 493.5 546.5Q467 495 449 495Z"/><path transform="translate(1023.14 378.00) scale(0.11200 -0.11200)" d="M347.5 -10.0Q207 -10 118.5 82.0Q30 174 30.0 350.5Q30 527 119.5 618.0Q209 709 350.5 709.0Q492 709 579.0 619.5Q666 530 666.0 348.5Q666 167 577.0 78.5Q488 -10 347.5 -10.0ZM348.0 517.0Q300 517 267.5 473.0Q235 429 235.0 349.5Q235 270 266.0 227.5Q297 185 347.5 185.0Q398 185 429.5 228.0Q461 271 461.0 351.0Q461 431 428.5 474.0Q396 517 348.0 517.0Z"/><path transform="translate(1104.46 378.00) scale(0.11200 -0.11200)" d="M598 22Q598 1 504.0 1.0Q410 1 402 16L235 328V17Q235 -1 142.5 -1.0Q50 -1 50 17V686Q50 701 129 701Q160 701 201.5 695.5Q243 690 252 675L412 367V681Q412 700 505.0 700.0Q598 700 598 681Z"/><path transform="translate(1180.39 378.00) scale(0.11200 -0.11200)" d="M351 16Q351 -4 252.0 -4.0Q153 -4 153 16V518H33Q16 518 9 564Q6 586 6.0 609.0Q6 632 9 654Q16 700 33 700H468Q485 700 492 654Q495 632 495.0 609.0Q495 586 492 564Q485 518 468 518H351Z"/><path transform="translate(1239.98 378.00) scale(0.11200 -0.11200)" d="M241 14Q241 -2 146 -2Q50 -2 50 13V665Q50 700 87 700H278Q541 700 541 495Q541 433 517.0 382.5Q493 332 449 302L575 92Q567 68 523 37Q463 -6 424.0 -6.0Q385 -6 366 22L272 241H241ZM241 523V373H246Q341 373 341 452Q341 488 322.5 505.5Q304 523 262 523Z"/><path transform="translate(1309.42 378.00) scale(0.11200 -0.11200)" d="M347.5 -10.0Q207 -10 118.5 82.0Q30 174 30.0 350.5Q30 527 119.5 618.0Q209 709 350.5 709.0Q492 709 579.0 619.5Q666 530 666.0 348.5Q666 167 577.0 78.5Q488 -10 347.5 -10.0ZM348.0 517.0Q300 517 267.5 473.0Q235 429 235.0 349.5Q235 270 266.0 227.5Q297 185 347.5 185.0Q398 185 429.5 228.0Q461 271 461.0 351.0Q461 431 428.5 474.0Q396 517 348.0 517.0Z"/><path transform="translate(1390.73 378.00) scale(0.11200 -0.11200)" d="M40 59V681Q40 702 141.5 702.0Q243 702 243 681V191H397Q415 191 422 144Q425 121 425.0 97.0Q425 73 422 48Q414 0 396 0H88Q66 0 53.0 18.0Q40 36 40 59Z"/><path transform="translate(1467.22 378.00) scale(0.11200 -0.11200)" d="M76 244Q95 229 141.5 203.0Q188 177 230.5 177.0Q273 177 273 210Q273 225 261.0 236.5Q249 248 217.0 263.0Q185 278 169.0 286.5Q153 295 126.5 314.5Q100 334 86 355Q46 412 46.0 500.0Q46 588 111.5 648.5Q177 709 283 709Q355 709 416.0 693.5Q477 678 479 653Q479 650 479 647Q479 612 457.0 558.5Q435 505 426 499Q362 532 311.5 532.0Q261 532 261 496Q261 474 298 457Q306 453 321.0 446.0Q336 439 355.5 429.5Q375 420 397.5 405.5Q420 391 446 367Q499 317 499 235Q499 128 440.0 60.0Q381 -8 258 -10Q198 -10 149.5 0.0Q101 10 65.0 39.0Q29 68 29.0 109.0Q29 150 44.0 190.5Q59 231 76 244Z"/><path transform="translate(1530.06 378.00) scale(0.11200 -0.11200)" d="M116 172V528H45Q28 528 21 571Q18 592 18.0 614.0Q18 636 21 657Q28 700 45 700H381Q398 700 404 657Q408 636 408.0 614.0Q408 592 404 571Q398 528 381 528H314V172H384Q401 172 408 129Q412 108 412.0 86.0Q412 64 408 43Q401 0 384 0H47Q30 0 24 43Q20 64 20.0 86.0Q20 108 24 129Q30 172 47 172Z"/><path transform="translate(1581.46 378.00) scale(0.11200 -0.11200)" d="M750 -1Q661 -1 661 19L640 420L518 14Q514 2 450.0 2.0Q386 2 384 13L258 424L244 25Q243 10 206.0 4.5Q169 -1 144.5 -1.0Q120 -1 97 2Q49 9 50 27L73 677Q73 701 195 701Q231 701 283.0 695.5Q335 690 341 674L453 359L551 675Q560 701 689 701Q726 701 777.5 695.5Q829 690 829 676L858 20Q858 9 819.0 4.0Q780 -1 750 -1Z"/></g>
<g fill="#ffffff" ><path transform="translate(956.95 378.00) scale(0.11200 -0.11200)" d="M449 495Q444 495 437.5 500.5Q431 506 407.5 512.5Q384 519 367 519Q309 519 273.5 478.0Q238 437 238.0 352.5Q238 268 274.5 227.0Q311 186 367 186Q390 186 418.5 192.5Q447 199 459 211Q461 213 467.0 213.0Q473 213 489.5 190.5Q506 168 520.0 131.5Q534 95 534 75Q534 36 474.0 13.0Q414 -10 332 -10Q200 -10 115.0 83.0Q30 176 30.0 345.5Q30 515 117.5 612.0Q205 709 336 709Q409 709 464.5 688.5Q520 668 520.0 633.0Q520 598 493.5 546.5Q467 495 449 495Z"/><path transform="translate(1023.14 378.00) scale(0.11200 -0.11200)" d="M347.5 -10.0Q207 -10 118.5 82.0Q30 174 30.0 350.5Q30 527 119.5 618.0Q209 709 350.5 709.0Q492 709 579.0 619.5Q666 530 666.0 348.5Q666 167 577.0 78.5Q488 -10 347.5 -10.0ZM348.0 517.0Q300 517 267.5 473.0Q235 429 235.0 349.5Q235 270 266.0 227.5Q297 185 347.5 185.0Q398 185 429.5 228.0Q461 271 461.0 351.0Q461 431 428.5 474.0Q396 517 348.0 517.0Z"/><path transform="translate(1104.46 378.00) scale(0.11200 -0.11200)" d="M598 22Q598 1 504.0 1.0Q410 1 402 16L235 328V17Q235 -1 142.5 -1.0Q50 -1 50 17V686Q50 701 129 701Q160 701 201.5 695.5Q243 690 252 675L412 367V681Q412 700 505.0 700.0Q598 700 598 681Z"/><path transform="translate(1180.39 378.00) scale(0.11200 -0.11200)" d="M351 16Q351 -4 252.0 -4.0Q153 -4 153 16V518H33Q16 518 9 564Q6 586 6.0 609.0Q6 632 9 654Q16 700 33 700H468Q485 700 492 654Q495 632 495.0 609.0Q495 586 492 564Q485 518 468 518H351Z"/><path transform="translate(1239.98 378.00) scale(0.11200 -0.11200)" d="M241 14Q241 -2 146 -2Q50 -2 50 13V665Q50 700 87 700H278Q541 700 541 495Q541 433 517.0 382.5Q493 332 449 302L575 92Q567 68 523 37Q463 -6 424.0 -6.0Q385 -6 366 22L272 241H241ZM241 523V373H246Q341 373 341 452Q341 488 322.5 505.5Q304 523 262 523Z"/><path transform="translate(1309.42 378.00) scale(0.11200 -0.11200)" d="M347.5 -10.0Q207 -10 118.5 82.0Q30 174 30.0 350.5Q30 527 119.5 618.0Q209 709 350.5 709.0Q492 709 579.0 619.5Q666 530 666.0 348.5Q666 167 577.0 78.5Q488 -10 347.5 -10.0ZM348.0 517.0Q300 517 267.5 473.0Q235 429 235.0 349.5Q235 270 266.0 227.5Q297 185 347.5 185.0Q398 185 429.5 228.0Q461 271 461.0 351.0Q461 431 428.5 474.0Q396 517 348.0 517.0Z"/><path transform="translate(1390.73 378.00) scale(0.11200 -0.11200)" d="M40 59V681Q40 702 141.5 702.0Q243 702 243 681V191H397Q415 191 422 144Q425 121 425.0 97.0Q425 73 422 48Q414 0 396 0H88Q66 0 53.0 18.0Q40 36 40 59Z"/><path transform="translate(1467.22 378.00) scale(0.11200 -0.11200)" d="M76 244Q95 229 141.5 203.0Q188 177 230.5 177.0Q273 177 273 210Q273 225 261.0 236.5Q249 248 217.0 263.0Q185 278 169.0 286.5Q153 295 126.5 314.5Q100 334 86 355Q46 412 46.0 500.0Q46 588 111.5 648.5Q177 709 283 709Q355 709 416.0 693.5Q477 678 479 653Q479 650 479 647Q479 612 457.0 558.5Q435 505 426 499Q362 532 311.5 532.0Q261 532 261 496Q261 474 298 457Q306 453 321.0 446.0Q336 439 355.5 429.5Q375 420 397.5 405.5Q420 391 446 367Q499 317 499 235Q499 128 440.0 60.0Q381 -8 258 -10Q198 -10 149.5 0.0Q101 10 65.0 39.0Q29 68 29.0 109.0Q29 150 44.0 190.5Q59 231 76 244Z"/><path transform="translate(1530.06 378.00) scale(0.11200 -0.11200)" d="M116 172V528H45Q28 528 21 571Q18 592 18.0 614.0Q18 636 21 657Q28 700 45 700H381Q398 700 404 657Q408 636 408.0 614.0Q408 592 404 571Q398 528 381 528H314V172H384Q401 172 408 129Q412 108 412.0 86.0Q412 64 408 43Q401 0 384 0H47Q30 0 24 43Q20 64 20.0 86.0Q20 108 24 129Q30 172 47 172Z"/><path transform="translate(1581.46 378.00) scale(0.11200 -0.11200)" d="M750 -1Q661 -1 661 19L640 420L518 14Q514 2 450.0 2.0Q386 2 384 13L258 424L244 25Q243 10 206.0 4.5Q169 -1 144.5 -1.0Q120 -1 97 2Q49 9 50 27L73 677Q73 701 195 701Q231 701 283.0 695.5Q335 690 341 674L453 359L551 675Q560 701 689 701Q726 701 777.5 695.5Q829 690 829 676L858 20Q858 9 819.0 4.0Q780 -1 750 -1Z"/></g></svg>