<svg xmlns="http://www.w3.org/2000/svg" width="512" height="512" viewBox="0 0 512 512">
<defs><linearGradient id="sea" x1="0" y1="0" x2="0" y2="1"><stop offset="0" stop-color="#2ec4b6"/><stop offset="1" stop-color="#0a5f8a"/></linearGradient></defs>
<rect width="512" height="512" rx="112" fill="url(#sea)"/>
<path d="M60 360 Q120 330 180 360 T300 360 T420 360 T480 350 V512 H60 Z" fill="#0b2545" opacity="0.25"/>
<path d="M120 300 Q256 230 400 300" fill="none" stroke="#fff" stroke-width="22" stroke-linecap="round" stroke-dasharray="1 44"/>
<path d="M330 250 L410 300 L330 350 Z" fill="#ff7a59" stroke="#fff" stroke-width="12" stroke-linejoin="round"/>
<g transform="translate(70 120)">
<path d="M10 150 H250 L215 215 H40 Z" fill="#ff7a59" stroke="#0b2545" stroke-width="12" stroke-linejoin="round"/>
<rect x="70" y="95" width="120" height="55" rx="8" fill="#fff3d9" stroke="#0b2545" stroke-width="12"/>
<rect x="95" y="45" width="40" height="50" rx="6" fill="#ffd23f" stroke="#0b2545" stroke-width="12"/>
</g>
<circle cx="400" cy="140" r="56" fill="#ffd23f" stroke="#0b2545" stroke-width="12"/>
<path d="M400 108 V172 M378 128 H422 M374 150 Q400 186 426 150" fill="none" stroke="#0b2545" stroke-width="10" stroke-linecap="round"/>
</svg>
